PathFileType	4	(X/Y/Z)	/Users/visionmauri/2_8_1_f_Sports2D/2_8_1_f_Sports2D_m_person00.trc
DataRate	CameraRate	NumFrames	NumMarkers	Units	OrigDataRate	OrigDataStartFrame	OrigNumFrames
30.0	30.0	10	22	m	30.0	175	350
Frame#	Time	Hip			RHip			RKnee			RAnkle			RBigToe			RSmallToe			RHeel			LHip			LKnee			LAnkle			LBigToe			LSmallToe			LHeel			Neck			Head			Nose			RShoulder			RElbow			RWrist			LShoulder			LElbow			LWrist			
		X1	Y1	Z1	X2	Y2	Z2	X3	Y3	Z3	X4	Y4	Z4	X5	Y5	Z5	X6	Y6	Z6	X7	Y7	Z7	X8	Y8	Z8	X9	Y9	Z9	X10	Y10	Z10	X11	Y11	Z11	X12	Y12	Z12	X13	Y13	Z13	X14	Y14	Z14	X15	Y15	Z15	X16	Y16	Z16	X17	Y17	Z17	X18	Y18	Z18	X19	Y19	Z19	X20	Y20	Z20	X21	Y21	Z21	X22	Y22	Z22
175	5.8500477554918815	0.6243441263938909	0.8308604924545868	0.0301	0.5597368975327467	0.790454945864196	0.0301	0.645684259954312	0.5008246770947348	0.129	0.7380353303790865	0.24093622362226594	0.023	0.7502538807618394	0.15182571762976416	0.2179	0.7076873702773231	0.15344463206558395	0.1804	0.7676600804253142	0.21041901069755828	-0.0119	0.6995630246820117	0.8427952391615823	0.0301	0.7848848595026402	0.560909372975942	0.129	0.8914617610573377	0.28011230011357674	0.023	0.9075222028125983	0.17603612654625322	0.2179	0.9512314165179624	0.20125664321440226	0.1804	0.8920043870258515	0.24086043277921973	-0.0119	0.4686820455553722	1.2467200220841566	0.0008	0.4076385495087345	1.432415699652742	0.0655	0.44828907084161573	1.3120124693513202	0.1076	0.35205600884706506	1.138249955838356	-0.01275	0.36033520577494094	0.9310849497694972	0.0702	0.366303934277938	0.7625723004800201	0.1076	0.6234150551549857	1.229840559414612	-0.01275	0.7642449344425251	1.0648287569881598	0.0702	0.8712148195956384	0.9302563615579152	0.1076
176	5.883476599808978	0.624721214547961	0.829542505258005	0.0301	0.5602226991301121	0.7900161613322948	0.0301	0.6464327875517164	0.49980350634179843	0.129	0.7378775246933702	0.2406261913636643	0.023	0.7499808281478285	0.15137795309011587	0.2179	0.7084088218245114	0.15351330976745084	0.1804	0.7690401835801737	0.2105764816508479	-0.0119	0.7008977298893158	0.8408774366838228	0.0301	0.7850975745766664	0.5595356088753078	0.129	0.8912224443382223	0.27941975887219866	0.023	0.9085818799590425	0.17614526048289367	0.2179	0.9512016197142213	0.20183757870067465	0.1804	0.8914501810288084	0.24125891930148924	-0.0119	0.4709788544382736	1.2488176408298912	0.0008	0.40923302966982816	1.4346090532534777	0.0655	0.45014980233376967	1.3142014345594877	0.1076	0.3537921907606955	1.1395127856051528	-0.01275	0.36296104809354324	0.9316094249845626	0.0702	0.36546375795760117	0.7631500567593075	0.1076	0.6265167049786009	1.231719293103864	-0.01275	0.7658344821042784	1.0660371288927937	0.0702	0.8706030117896116	0.9313517611838042	0.1076
177	5.916905444126074	0.6247468397059914	0.8289231872104369	0.0301	0.5602574916174424	0.7916018876233694	0.0301	0.6470255052228561	0.49848071849486164	0.129	0.7380026766200934	0.24045229755047823	0.023	0.7494244201328603	0.15111916600042144	0.2179	0.7091621012429459	0.15349683657732732	0.1804	0.770320917492037	0.21074734693162547	-0.0119	0.7016956022833349	0.8411616254478141	0.0301	0.785097182283652	0.5594811100095726	0.129	0.8905296152651415	0.2790102621146218	0.023	0.9090048685185259	0.17587470440780784	0.2179	0.9496983465308142	0.20319809391762844	0.1804	0.8909584708032809	0.2412419346678478	-0.0119	0.47349095040292494	1.2502492864304677	0.0008	0.41198989997732727	1.4365702464531238	0.0655	0.4528663113488559	1.3154953257074322	0.1076	0.35489242348373834	1.1421208377540868	-0.01275	0.36549621091246526	0.9324404679443521	0.0702	0.36498510699096226	0.7645723688473186	0.1076	0.6287425241040869	1.2333567126701461	-0.01275	0.7666719693080017	1.0676033391965796	0.0702	0.8707794858226496	0.9321493672116418	0.1076
178	5.950334288443171	0.6245060288514942	0.8279243901593188	0.0301	0.5595298603278744	0.7926185225137171	0.0301	0.6473784201763533	0.49773600448203925	0.129	0.7383292009550351	0.24051422902920275	0.023	0.7492844569839476	0.15099103149092377	0.2179	0.7095678066302828	0.1532442549091392	0.1804	0.7709519926492596	0.2105266848408156	-0.0119	0.7019896719279612	0.842655735041319	0.0301	0.7853850907705291	0.563161751814781	0.129	0.8902241801451548	0.27907093760017054	0.023	0.9089982027489664	0.17546953958290024	0.2179	0.9481220530056738	0.20422559139499438	0.1804	0.891477156189342	0.24114519057899633	-0.0119	0.4763831397487899	1.2500908169671416	0.0008	0.41471493563426765	1.438773928384643	0.0655	0.455078717242623	1.3165138606990352	0.1076	0.35595954463639395	1.1445177672078624	-0.01275	0.3663692677254899	0.9336251814210382	0.0702	0.36582103761939194	0.7650966636277261	0.1076	0.6303532464736342	1.2354093402565898	-0.01275	0.7668761442990383	1.0689278125628319	0.0702	0.871181051668353	0.932387684493075	0.1076
179	5.983763132760267	0.6243370608823734	0.8256377532761972	0.0301	0.5579883502116554	0.7911206555889577	0.0301	0.6474212115269565	0.4980508847495458	0.129	0.7386778284534736	0.24119217048369535	0.023	0.7494521033572659	0.15104554107887147	0.2179	0.7096935111894696	0.15312213077761258	0.1804	0.7709332954779246	0.21027526538376162	-0.0119	0.7018714424812641	0.8435626550526868	0.0301	0.7852150434398655	0.5679782749597753	0.129	0.8898275894033696	0.2802316186825221	0.023	0.90886790035575	0.17549438843283713	0.2179	0.9472885911376523	0.20440960923732934	0.1804	0.8916228138104999	0.2420213566504024	-0.0119	0.47945406704115673	1.2487195772800976	0.0008	0.41646014036947243	1.4412013896696445	0.0655	0.4561664921828763	1.3182524226215475	0.1076	0.3573539591975337	1.1458014707082045	-0.01275	0.36547945216146244	0.9348823441450131	0.0702	0.3669665064181794	0.7644584409411719	0.1076	0.6318322681655474	1.2378110970392193	-0.01275	0.7672099561565998	1.07038537580656	0.0702	0.8715127323644439	0.9318560578083105	0.1076
180	6.017191977077364	0.6243407411312939	0.8240449321773177	0.0301	0.5559635464262379	0.7889269544854486	0.0301	0.6472247630599984	0.4983377699185363	0.129	0.7388784894550811	0.2423262362098743	0.023	0.7499190645797127	0.1514556683798343	0.2179	0.7099864844004034	0.15347798638149965	0.1804	0.7703327335726298	0.21059570076418188	-0.0119	0.7017218382404384	0.8436514426880292	0.0301	0.7853809282359898	0.5674058185607705	0.129	0.8891237155607101	0.28215108153071233	0.023	0.9085794813990081	0.17576768383914348	0.2179	0.9471175970684682	0.20435194049017655	0.1804	0.8905554045427723	0.24357712067221238	-0.0119	0.4818955916763153	1.2493960228537744	0.0008	0.4175473767767217	1.4438664306783209	0.0655	0.45689735159876277	1.3211051454299954	0.1076	0.3586924812744356	1.146858555762344	-0.01275	0.36388677583176565	0.9353888138462263	0.0702	0.367433560247632	0.7643070490074968	0.1076	0.634392815776734	1.2401374224449722	-0.01275	0.7684390940277761	1.072285960899895	0.0702	0.8719591426692874	0.9308669773661644	0.1076
181	6.05062082139446	0.6239272732728983	0.8254173596620518	0.0301	0.553717245733781	0.7888839483918568	0.0301	0.6462921072017116	0.49826125735605425	0.129	0.7386990330999152	0.24347131506650357	0.023	0.7502079073992939	0.15175476727299725	0.2179	0.7101671523431978	0.15380585713488856	0.1804	0.769686928932222	0.21187762097553225	-0.0119	0.7016308303287365	0.8438664083222382	0.0301	0.7871732357766241	0.5629480103304596	0.129	0.8886079548442418	0.2835303550068457	0.023	0.9079107695952595	0.17548579371591272	0.2179	0.9472161587305788	0.20434173540816328	0.1804	0.8893393022376082	0.24467109060366155	-0.0119	0.4832214134636338	1.2538269313944894	0.0008	0.4190264704437727	1.4464850561218956	0.0655	0.45815669916256974	1.3243533897595472	0.1076	0.3598311961799544	1.1486430672790335	-0.01275	0.36274906302361415	0.935100012502282	0.0702	0.3673319090943562	0.7654760501366977	0.1076	0.638573870451471	1.2422635491936866	-0.01275	0.770391433631575	1.073966668577723	0.0702	0.8725356036935572	0.930324997733279	0.1076
182	6.084049665711557	0.6232135539699457	0.8281753932913637	0.0301	0.5517408041185625	0.7910683352590395	0.0301	0.644342147830102	0.4985544813459127	0.129	0.7380946593498066	0.24454232926598676	0.023	0.7498140202108708	0.15143290061757428	0.2179	0.7098578120855792	0.1535024224135689	0.1804	0.7695347572085165	0.213909450059051	-0.0119	0.7014476005341297	0.844484336789337	0.0301	0.7894244868546894	0.5621727923918445	0.129	0.8884961356546249	0.28389190886925963	0.023	0.9069691931535147	0.174602012996493	0.2179	0.9471677865602556	0.20409763776384904	0.1804	0.8887423634820355	0.24537049592791377	-0.0119	0.4840748687679371	1.2586757191160185	0.0008	0.4213247635338993	1.4480839345708125	0.0655	0.45989009180833634	1.3266183419352449	0.1076	0.3609952401151681	1.1504257166890417	-0.01275	0.36264537687993753	0.9348834424995615	0.0702	0.3670418134135225	0.7666741071600972	0.1076	0.642791136622656	1.2438716176835172	-0.01275	0.7721006192338861	1.074896258712071	0.0702	0.8729620266821531	0.9306297852239105	0.1076
183	6.117478510028653	0.6228821403225384	0.8290748749001989	0.0301	0.5504344159791688	0.7933617060239706	0.0301	0.6421075523599391	0.49884670608787346	0.129	0.7374958984011931	0.24536689607330525	0.023	0.7493612992606986	0.15091924617128658	0.2179	0.7096496256423394	0.15304838468694584	0.1804	0.7694224803997224	0.2159037709446266	-0.0119	0.7011701745775432	0.8448111421346943	0.0301	0.7902895737958695	0.5653775229644263	0.129	0.888558559859005	0.28388016684547296	0.023	0.9061593235622245	0.17416008832619306	0.2179	0.9471750674081957	0.20370576502738297	0.1804	0.8883297549075524	0.24641798896076483	-0.0119	0.4850362300510461	1.2608527273590178	0.0008	0.4239225876005733	1.4485164551757619	0.0655	0.4618859356411179	1.327230979588346	0.1076	0.3622003689622013	1.1510586552253887	-0.01275	0.36316429928867044	0.9354171414807583	0.0702	0.3667847062724312	0.7662046296308657	0.1076	0.6449525873472712	1.2445806010142486	-0.01275	0.7731132627843994	1.0753561267938838	0.0702	0.8730364077336528	0.9312045675468057	0.1076
184	6.15090735434575	0.6227364443696402	0.8280345894232046	0.0301	0.5496340077139041	0.7943731944189165	0.0301	0.6402330852552917	0.49823469436473417	0.129	0.7373495429249526	0.24571760818433303	0.023	0.7492983332233442	0.1509080803246058	0.2179	0.7095354209629842	0.15348149121535729	0.1804	0.7691232633793297	0.2172223237899705	-0.0119	0.7009708303171835	0.8441254174421253	0.0301	0.790289251375381	0.5666753543791859	0.129	0.8888381364189025	0.28380902993302576	0.023	0.9055926446795937	0.17490766745267422	0.2179	0.947508008034521	0.20341755043765908	0.1804	0.8881000554811446	0.2471954643550767	-0.0119	0.4859399958963007	1.2613428259869615	0.0008	0.42591165102480916	1.4486517988960546	0.0655	0.46406026993180266	1.3268000021354749	0.1076	0.36342618626702866	1.1515165493708541	-0.01275	0.363687333001137	0.9367571268049254	0.0702	0.3665070910886633	0.7642518341752982	0.1076	0.644522747298692	1.2446685319124975	-0.01275	0.7738435256942132	1.0756502392922458	0.0702	0.8728630305138415	0.9314655561749986	0.1076
